<svg width="6" height="22" viewBox="0 0 6 22" fill="none" xmlns="http://www.w3.org/2000/svg" className='cursor-pointer'>
                <path d="M2.99967 21.6666C2.26634 21.6666 1.63879 21.4057 1.11701 20.8839C0.594342 20.3613 0.333008 19.7333 0.333008 18.9999C0.333008 18.2666 0.594342 17.6386 1.11701 17.1159C1.63879 16.5941 2.26634 16.3333 2.99967 16.3333C3.73301 16.3333 4.36101 16.5941 4.88367 17.1159C5.40545 17.6386 5.66634 18.2666 5.66634 18.9999C5.66634 19.7333 5.40545 20.3613 4.88367 20.8839C4.36101 21.4057 3.73301 21.6666 2.99967 21.6666ZM2.99967 13.6666C2.26634 13.6666 1.63879 13.4053 1.11701 12.8826C0.594342 12.3608 0.333008 11.7333 0.333008 10.9999C0.333008 10.2666 0.594342 9.63859 1.11701 9.11592C1.63879 8.59414 2.26634 8.33325 2.99967 8.33325C3.73301 8.33325 4.36101 8.59414 4.88367 9.11592C5.40545 9.63859 5.66634 10.2666 5.66634 10.9999C5.66634 11.7333 5.40545 12.3608 4.88367 12.8826C4.36101 13.4053 3.73301 13.6666 2.99967 13.6666ZM2.99967 5.66659C2.26634 5.66659 1.63879 5.40525 1.11701 4.88259C0.594342 4.36081 0.333008 3.73325 0.333008 2.99992C0.333008 2.26659 0.594342 1.63903 1.11701 1.11725C1.63879 0.594585 2.26634 0.333252 2.99967 0.333252C3.73301 0.333252 4.36101 0.594585 4.88367 1.11725C5.40545 1.63903 5.66634 2.26659 5.66634 2.99992C5.66634 3.73325 5.40545 4.36081 4.88367 4.88259C4.36101 5.40525 3.73301 5.66659 2.99967 5.66659Z" fill="white"/>
            </svg>